<svg xmlns="http://www.w3.org/2000/svg" width="55" height="43" viewBox="0 0 55 43">
    <g fill="none" fill-rule="evenodd">
        <path fill="#000" fill-rule="nonzero" d="M14.835 41.764a4.227 4.227 0 0 0 5.974 0l20.454-20.447a5.988 5.988 0 0 0 1.333-2.032c2.055.575 4.054.88 5.816.869 4.36-.023 5.805-1.93 6.28-3.071.474-1.13.813-3.5-2.248-6.616l-.102-.102c-1.897-1.897-4.653-3.647-7.781-4.945a40.741 40.741 0 0 0-1.717-.655v-.034A4.623 4.623 0 0 0 38.281.17L26.027 0a5.96 5.96 0 0 0-4.325 1.762L1.237 22.209a4.224 4.224 0 0 0 0 5.972l13.598 13.583zM30.6 7.317a3.498 3.498 0 0 1 4.947 0 3.48 3.48 0 0 1 .983 2.98c1.344.949 2.947 1.83 4.664 2.54a32.1 32.1 0 0 0 1.762.667l-.068-4.923c.102.045.192.08.294.124 2.676 1.118 5.082 2.631 6.63 4.178l.067.068c1.468 1.501 1.627 2.461 1.502 2.755-.384.914-4.506 1.727-10.763-.881-1.83-.768-3.546-1.716-4.935-2.744-.046.057-.102.113-.147.17a3.498 3.498 0 0 1-4.947 0 3.492 3.492 0 0 1 .011-4.934z"/>
    </g>
</svg>
